PathFileType	4	(X/Y/Z)	RBDS014\RBDS014runT25.trc
DataRate	CameraRate	NumFrames	NumMarkers	Units	OrigDataRate	OrigDataStartFrame	OrigNumFrames
150.000000	150.000000	6	33	mm	150.000000	3375	4500
Frame#	Time	L.ASIS			L.Heel.Bottom			L.Heel.Lateral			L.Heel.Top			L.Iliac.Crest			L.MT1			L.MT5			L.PSIS			L.Shank.Bottom.Lateral			L.Shank.Bottom.Medial			L.Shank.Top.Lateral			L.Shank.Top.Medial			L.Thigh.Bottom.Lateral			L.Thigh.Bottom.Medial			L.Thigh.Top.Lateral			L.Thigh.Top.Medial			R.ASIS			R.ASY			R.Heel.Bottom			R.Heel.Lateral			R.Heel.Top			R.Iliac.Crest			R.MT1			R.MT5			R.PSIS			R.Shank.Bottom.Lateral			R.Shank.Bottom.Medial			R.Shank.Top.Lateral			R.Shank.Top.Medial			R.Thigh.Bottom.Lateral			R.Thigh.Bottom.Medial			R.Thigh.Top.Lateral			R.Thigh.Top.Medial			
		X1	Y1	Z1	X2	Y2	Z2	X3	Y3	Z3	X4	Y4	Z4	X5	Y5	Z5	X6	Y6	Z6	X7	Y7	Z7	X8	Y8	Z8	X9	Y9	Z9	X10	Y10	Z10	X11	Y11	Z11	X12	Y12	Z12	X13	Y13	Z13	X14	Y14	Z14	X15	Y15	Z15	X16	Y16	Z16	X17	Y17	Z17	X18	Y18	Z18	X19	Y19	Z19	X20	Y20	Z20	X21	Y21	Z21	X22	Y22	Z22	X23	Y23	Z23	X24	Y24	Z24	X25	Y25	Z25	X26	Y26	Z26	X27	Y27	Z27	X28	Y28	Z28	X29	Y29	Z29	X30	Y30	Z30	X31	Y31	Z31	X32	Y32	Z32	X33	Y33	Z33	

3376	22.5	2103.893537791124	1039.976169426346	947.0841352760582	1732.765220422595	312.6678085809402	1010.86342308711	1761.950430440448	312.0994898770073	967.7016321985742	1778.856972814354	334.5301979006214	1011.428168816814	2033.332918596208	1101.408782844229	903.9827506213051	1886.158475466355	131.0143360989429	1023.289094996394	1850.314354153134	170.6315388654093	913.3813939448273	1926.28171527518	1058.293333084798	1017.345471294151	1912.960737068769	357.3833550665865	942.8237807501765	1891.742424386494	389.0687713846893	983.1702498023345	1973.74278927271	409.7459446488303	934.6114526719904	1954.058435516918	440.7621986096995	973.8084457642254	2172.579280889954	676.2131432717277	903.7523405387528	2120.868687110588	646.3645139754484	944.802985691396	2110.22377848304	767.0739429917511	895.6880964432289	2062.342232069092	739.9881466508162	936.342956039663	2111.060022486642	1070.597159122058	1193.117584367163	1923.453034514355	87.40436159376192	1101.750856955531	1722.918601006863	54.49431251839799	1080.143133138254	1746.403659121856	73.38772611283979	1120.740174128369	1739.246800461316	104.343726047341	1080.300834191214	2051.082780348665	1129.770322453098	1215.66114075546	1957.732231388784	48.67962381731345	1053.766432102993	1913.871313330722	37.31183931598615	1169.570786472059	1936.172263033886	1078.179103786949	1109.041761213176	1843.943593919513	197.6013569624956	1151.598203720316	1820.91284191446	223.4064476844195	1113.428352991267	1877.430022053536	271.181391358946	1178.323253750944	1852.024146170803	294.1683478003279	1137.474723691796	2073.528151290056	659.556682815157	1236.143874278127	2005.915013394565	654.0452353142771	1208.090961676792	2054.408751975649	766.1518704832087	1253.60117040717	1991.370473605403	761.9669362474988	1223.509538178438	
3377	22.50666666666667	2103.638008473809	1044.26452996082	946.8155645768845	1748.487542774712	297.3949086314667	1010.690368342167	1777.809509109301	298.3443166106446	967.6323614627244	1793.393619758498	321.605533706212	1011.371155858792	2032.278455588006	1105.841653297672	903.6458534187207	1910.942904866009	123.8279067268604	1023.236478656822	1873.324952701424	161.7027080844242	913.3030354533419	1925.671619983327	1063.055967330286	1016.24036858678	1926.843590189897	350.5842922235094	943.0006340991924	1903.928761521767	381.5519149186695	982.9600974734725	1985.191908155781	405.6963427070475	934.7184224274531	1963.755432839327	436.0582070105153	973.5200725727117	2177.497558954072	683.9036075628815	903.4331748564401	2125.892867877889	652.8647931179186	943.776751965684	2113.307725927049	773.3798866605674	894.7321917796444	2065.37408506544	745.1510059616249	934.5955979543722	2110.607543389257	1073.023984724416	1193.106972764149	1908.045234744357	87.99864135425555	1102.065323718041	1707.074029613778	58.98961847300206	1080.460141653911	1730.894174643875	77.20161896460409	1121.195100898265	1724.236615296671	108.5130383761607	1080.914662584601	2051.464488663898	1132.063392819138	1215.448550628261	1941.072501062603	48.67760837524677	1053.578606547219	1897.263718751644	37.63410522704031	1169.477875554926	1935.926989965233	1081.909292514517	1108.590920938367	1829.043892137384	200.9367155264199	1151.620150657629	1806.154932084416	226.7439859115604	1113.381051701797	1862.840447098042	274.4291025964779	1178.164593648095	1837.495238555293	297.4659831090162	1137.32165553598	2064.174101035825	661.7198249512458	1234.947151893304	1996.535823695878	658.0420724001016	1206.650538364823	2047.705881253187	768.792418079033	1252.540746385635	1984.657839601926	766.2302972309824	1222.272478201103	
3378	22.51333333333334	2103.535795807064	1048.778212062183	946.4382893191331	1765.037231630041	281.5442826288103	1010.706650787556	1794.365511663915	284.0609488101084	967.739406518298	1808.596630123709	308.1102631175084	1011.48173181905	2031.295666487031	1110.499528687271	903.2728791058306	1936.435079738621	116.8061083075646	1023.226962910011	1896.973296757245	152.780522671921	913.2950910471285	1925.278080802711	1068.184721807103	1015.075237396629	1940.976303854446	343.4596481256309	943.2660089028219	1916.377565365887	373.5657623858242	982.8764553259016	1996.633282968979	401.3179193345954	934.8810239476929	1973.466567860392	430.8749479283977	973.3224667534246	2181.910361021822	691.7177756461053	903.1186479969459	2130.369053034161	659.5979417604345	942.7546025664365	2116.07847293783	779.8956954820954	893.7179178772232	2068.082969077404	750.6419589938512	932.8153749202003	2110.42748133017	1075.594250736869	1192.901913560113	1892.880559294389	88.59463528702726	1102.522729935841	1691.470025160523	64.02029086053003	1080.81575900083	1715.639055943832	81.46342960594716	1121.720309502067	1709.556676222812	113.1644159902762	1081.608425909013	2052.097510512318	1134.652485891483	1215.148697204091	1924.502345888049	48.66211756772449	1053.466237746064	1880.715774214518	37.98713985803891	1169.457273440944	1935.912450579348	1085.962251088779	1108.10961211366	1814.385784316867	204.6322401789015	1151.72912191303	1791.650542862731	230.4173834516575	1113.404716948798	1848.453004169947	278.058147542604	1178.078783977771	1823.185000653541	301.1101509883255	1137.218122485414	2055.070794241347	664.2654272318279	1233.760539283879	1987.39656275324	662.3904377659544	1205.337377726018	2041.29389263665	771.7569929558884	1251.449859038401	1978.212311996968	770.7975466958715	1221.135672107672	
3379	22.52	2103.567317445381	1053.51386067898	945.9422054430836	1782.487832928262	265.2123229990935	1010.911509083948	1811.671693055765	269.3363780365943	968.0113257435348	1824.530537231837	294.1291805910055	1011.752356457881	2030.411595205961	1115.383473302397	902.8730656088931	1962.629930940437	110.0612825611534	1023.263367986264	1921.259747887396	143.9479292620073	913.3583429775395	1925.103761138672	1073.667989273339	1013.891949319706	1955.388288555732	336.0558582452151	943.6106354997194	1929.141983614734	365.1478576760668	982.9239748236686	2008.092167615395	396.6240232112773	935.0918294046053	1983.243592972976	425.2204575225402	973.2272356188297	2185.75609487215	699.5574415687632	902.8395690718785	2134.232079892991	666.4753519720756	941.7767330586075	2118.490439780306	786.5515989163083	892.6989468170573	2070.425420413019	756.4034141173328	931.0725479829891	2110.525416038808	1078.265241796156	1192.477038137395	1877.976832257428	89.19494095300294	1103.122147372289	1676.143885423482	69.57090381827805	1081.201778289219	1700.667206173677	86.16121865343388	1122.304526008098	1695.243886111909	118.2758713170063	1082.369532461137	2053.051674313648	1137.6038709708	1214.703807268743	1908.050208278835	48.62412239618453	1053.44789435904	1864.237502235841	38.38295397361178	1169.519350877428	1936.130793626371	1090.325529157005	1107.625406136499	1800.015608225787	208.6706855982304	1151.919811122654	1777.451105406881	234.4075815428571	1113.489291338782	1834.320761194259	282.050245093217	1178.059763471566	1809.151417375086	305.0803744275201	1137.149317796523	2046.262373048939	667.150574845279	1232.60761304772	1978.546646798148	667.0338525208274	1204.163751887321	2035.192629310423	774.9983495361365	1250.345087799241	1972.060358729998	775.610772766327	1220.101240476037	
3380	22.52666666666667	2103.713501795447	1058.462066355929	945.3251121155706	1800.897346424776	248.5080014625753	1011.300011596814	1829.773265278938	254.2667561122744	968.4325578792316	1841.246364082784	279.7580017015767	1012.171506304903	2029.655157616036	1120.493864169075	902.4575994735904	1989.504134909962	103.707061786236	1023.361797285167	1946.17859860659	135.2913103324355	913.502915833941	1925.145456780909	1079.483428663808	1012.733285386085	1970.103756901663	328.4224317721227	944.0224020720232	1942.266979639948	356.3448684435037	983.0984801304237	2019.593412423669	391.6310425574696	935.33834727754	1993.134983363296	419.1123420070903	973.2354700675776	2188.977088842532	707.3159635561899	902.6276466904239	2137.418231055727	673.401571793955	940.8797533545069	2120.504367057315	793.2704329970051	891.7276758924133	2072.358124765467	762.3693664837426	929.4292946022853	2110.895992498769	1080.997950182578	1191.821228653931	1863.343973156622	89.80517992493006	1103.855324481838	1661.132556066963	75.61904463211734	1081.611302858289	1686.007821360742	91.27783793667878	1122.932947739206	1681.333645259975	123.8181339686242	1083.18346765108	2054.380023771321	1140.95403941636	1214.0656582738	1891.743418876335	48.55490264345058	1053.53323939618	1847.841614578362	38.83794922995957	1169.669770730757	1936.576980362335	1094.970745012621	1107.165524849285	1785.9740988367	213.0293425111068	1152.182581599873	1763.603085272097	238.6876404642435	1113.618499269302	1820.489455105548	286.3824354784597	1178.094295848872	1795.443740634506	309.3512989604176	1137.093881591642	2037.775628315016	670.3272240125503	1231.507353510672	1970.022692079594	671.9159967878634	1203.124448008341	2029.404884520635	778.46535662036	1249.242241334174	1966.2175359135	780.6119836830975	1219.156624153446	
3381	22.53333333333333	2103.956488908164	1063.604149526112	944.592162900079	1820.302687118879	231.5557933009928	1011.857755450098	1848.705942884108	238.9597750049653	968.9810098094687	1858.777576341764	265.104944727155	1012.720050889512	2029.05173305411	1125.82803414507	902.0398107560251	2017.007906556073	97.85664741018974	1023.55523107783	1971.716914845236	126.9014403328662	913.7503925612726	1925.394531701601	1085.595545346927	1011.640489861111	1985.141286449116	320.612470508165	944.4854411546241	1955.786985368063	347.213818632921	983.384303352013	2031.16286574863	386.358714945613	935.6020276582268	2003.184971586714	412.5781514460566	973.3340793366016	2191.524241049825	714.8789014642751	902.5104464990625	2139.869627435042	680.274586002709	940.0913222848973	2122.09116859163	799.9669766748439	890.8487499926448	2073.841702154278	768.4644169792806	927.9324707969915	2111.524363011337	1083.759003114288	1190.937583098525	1848.98377908558	90.43305231497382	1104.70723102762	1646.472090829202	82.13872990710612	1082.04073691962	1671.690976986849	96.79361841590462	1123.589424039208	1667.859216039215	129.7582331551019	1084.035940594962	2056.114069853012	1144.704398386235	1213.201034143189	1875.60580749468	48.44833583614693	1053.722081412451	1831.544726757445	39.37296320227102	1169.909040988668	1937.238908678898	1099.85360234368	1106.754905447711	1772.295944288633	217.6818106697781	1152.505349746713	1750.147052762766	243.2251670336475	1113.772659598304	1806.996700413747	291.0290356076368	1178.164391065225	1782.101875004176	313.894581667835	1137.027230829013	2029.622216864715	673.7466155540817	1230.473276533856	1961.849133261677	676.9849211779523	1202.200371044805	2023.920682384732	782.1073210629006	1248.156103746517	1960.690984190313	785.7474567346485	1218.278569751333	
